<svg width="40" height="40" viewBox="0 0 40 40" fill="none" xmlns="http://www.w3.org/2000/svg">
<path d="M4.32838 20.0716C5.61718 20.3296 6.90278 21.412 7.76758 22.9668C7.99838 23.3816 8.26878 23.7648 8.57158 24.114C8.55718 24.7808 8.63798 25.4552 8.82638 26.1156C9.24358 27.574 9.06438 29.498 8.40918 30.5916C8.31278 30.7516 8.34078 30.9576 8.47638 31.0864C8.55278 31.1596 8.65198 31.1968 8.75198 31.1968C8.82878 31.1968 8.90638 31.1744 8.97398 31.1296C10.068 30.4008 11.7428 30.2568 13.4528 30.7448C13.9096 30.8748 14.372 30.9552 14.8336 30.9884C15.2948 31.4696 15.8284 31.8892 16.4284 32.2224C17.7548 32.9588 18.9884 34.4468 19.2984 35.6828C19.3428 35.8608 19.5032 35.9856 19.6864 35.9856C19.6896 35.9856 19.6928 35.9856 19.696 35.9856C19.8828 35.9808 20.0416 35.8476 20.0784 35.664C20.3364 34.3752 21.4188 33.0896 22.9736 32.2248C23.3888 31.9936 23.7732 31.7236 24.1228 31.4208C24.7892 31.4352 25.4628 31.3544 26.1224 31.166C27.5804 30.7484 29.5044 30.9276 30.598 31.5836C30.662 31.622 30.7332 31.6408 30.804 31.6408C30.9108 31.6408 31.0156 31.5984 31.0936 31.5168C31.2228 31.3812 31.2408 31.1748 31.1368 31.0188C30.4076 29.9252 30.2636 28.2504 30.752 26.54C30.8824 26.0828 30.9628 25.62 30.996 25.1584C31.4772 24.6972 31.8964 24.164 32.2296 23.564C32.966 22.2376 34.454 21.004 35.69 20.694C35.8712 20.6488 35.9972 20.4836 35.9928 20.2964C35.988 20.1096 35.8548 19.9508 35.6712 19.914C34.3824 19.656 33.0968 18.5736 32.232 17.0192C32.0008 16.604 31.7308 16.22 31.428 15.8712C31.4424 15.2044 31.3616 14.5304 31.1732 13.8704C30.756 12.412 30.9352 10.4876 31.5904 9.3944C31.6868 9.2344 31.6588 9.0284 31.5236 8.8996C31.3872 8.7704 31.1812 8.7532 31.0256 8.8564C29.9324 9.5856 28.2584 9.7296 26.5468 9.2408C26.09 9.1108 25.6276 9.0304 25.1664 8.9972C24.7052 8.5156 24.1716 8.0964 23.5716 7.7632C22.2452 7.0268 21.0116 5.5388 20.7016 4.3028C20.6572 4.1248 20.4968 4 20.3136 4C20.3104 4 20.3072 4 20.304 4C20.1172 4.0048 19.9584 4.1384 19.9216 4.3216C19.6636 5.6104 18.5812 6.896 17.0264 7.7608C16.6112 7.9916 16.2272 8.2616 15.8776 8.5644C15.2108 8.55 14.5372 8.6308 13.8776 8.8196C12.4188 9.2372 10.4952 9.0568 9.40158 8.4024C9.24238 8.3068 9.03558 8.334 8.90678 8.4696C8.77758 8.6048 8.75958 8.8116 8.86358 8.9672C9.59238 10.0608 9.73678 11.7352 9.24838 13.446C9.11798 13.9032 9.03758 14.3656 9.00438 14.8268C8.52318 15.288 8.10398 15.8212 7.77078 16.4212C7.03438 17.7476 5.54638 18.9812 4.31038 19.2912C4.12918 19.3364 4.00318 19.5016 4.00758 19.6888C4.01158 19.8756 4.14478 20.0348 4.32838 20.0716ZM9.79038 15.1916C10.8268 14.2992 12.1548 13.7772 13.56 13.7524C13.5604 13.7872 13.5584 13.8216 13.5596 13.8564C13.5992 15.2208 14.0552 16.4864 14.7988 17.536C13.4272 17.6344 12.148 18.1432 11.084 19.004C10.2148 17.9156 9.76398 16.568 9.79038 15.1916ZM16.1764 9.3784C17.5404 9.4804 18.8488 10.0508 19.8596 11.0268C19.8352 11.0516 19.8096 11.0744 19.7856 11.1C18.8484 12.0932 18.2756 13.3108 18.0596 14.58C17.022 13.6836 15.756 13.1352 14.3948 12.99C14.5496 11.6048 15.184 10.3328 16.1764 9.3784ZM24.6868 9.7796C24.7252 9.7796 24.7636 9.7828 24.802 9.7836C25.6948 10.8204 26.2168 12.1484 26.2412 13.5536C26.2064 13.554 26.172 13.5516 26.1368 13.5524C24.772 13.592 23.5064 14.048 22.456 14.792C22.3564 13.4268 21.8504 12.1464 20.9928 11.082C22.0508 10.2376 23.3504 9.7796 24.6868 9.7796ZM30.6144 16.1676C30.5128 17.532 29.9432 18.8408 28.9664 19.852C28.9416 19.828 28.9188 19.802 28.8936 19.7784C27.9 18.8412 26.6824 18.2688 25.4136 18.0524C26.3096 17.0156 26.858 15.7504 27.0032 14.39C28.3876 14.5452 29.66 15.176 30.6144 16.1676ZM30.2096 24.7948C29.1732 25.6876 27.8452 26.2096 26.44 26.234C26.4396 26.1992 26.4416 26.1648 26.4404 26.13C26.4008 24.7628 25.9428 23.4952 25.1964 22.444C26.5648 22.3448 27.8496 21.8416 28.9152 20.9808C29.7852 22.0696 30.236 23.4176 30.2096 24.7948ZM23.8232 30.608C22.4592 30.5064 21.1516 29.936 20.1404 28.9596C20.1648 28.9348 20.1904 28.912 20.2144 28.8864C21.1516 27.8932 21.724 26.6756 21.9404 25.4064C22.978 26.3028 24.244 26.8512 25.6052 26.9964C25.4504 28.3816 24.816 29.6532 23.8232 30.608ZM15.1984 30.2028C14.306 29.1668 13.784 27.8392 13.7588 26.4348C13.7936 26.4344 13.8284 26.434 13.8632 26.4332C15.228 26.3936 16.4936 25.9372 17.544 25.1932C17.644 26.5608 18.1512 27.8436 19.0112 28.9088C17.9228 29.7784 16.5752 30.23 15.1984 30.2028ZM14.3596 13.7924C15.7316 13.9508 16.9916 14.5716 17.962 15.5876C17.9432 16.5148 18.1164 17.4428 18.4748 18.312C17.6612 17.8772 16.7636 17.616 15.8212 17.5452C14.9476 16.5408 14.4 15.2472 14.3592 13.8328C14.3588 13.8192 14.36 13.806 14.3596 13.7924ZM26.16 14.3528C26.1736 14.3524 26.1872 14.3524 26.2008 14.352C26.0428 15.724 25.4216 16.9844 24.4052 17.9548C23.478 17.936 22.5496 18.1088 21.6804 18.4676C22.1152 17.654 22.3764 16.7568 22.4472 15.8148C23.452 14.9412 24.7456 14.3936 26.16 14.3528ZM25.6404 26.194C24.2688 26.0356 23.0084 25.4148 22.038 24.3988C22.0568 23.4716 21.884 22.5432 21.5252 21.674C22.3388 22.1088 23.236 22.37 24.178 22.4408C25.052 23.4456 25.5996 24.7392 25.6408 26.1536C25.6412 26.1672 25.64 26.1804 25.6404 26.194ZM21.1428 23.1748C20.8304 22.614 20.6116 22.0096 20.496 21.376C20.8104 21.9436 21.0284 22.5504 21.1428 23.1748ZM21.3284 20.62C21.9516 20.7988 22.5352 21.074 23.0572 21.4344C22.44 21.2588 21.858 20.986 21.3284 20.62ZM22.2744 20.106C23.1556 19.8376 23.9724 19.384 24.6876 18.7684C26.0148 18.8616 27.316 19.39 28.3448 20.3604C28.3548 20.3696 28.3636 20.38 28.3736 20.3892C27.2932 21.2476 25.968 21.7004 24.5564 21.6664C23.9156 21 23.1396 20.4668 22.2744 20.106ZM21.388 19.494C21.9548 19.1808 22.5604 18.962 23.184 18.848C22.6244 19.1592 22.0204 19.3776 21.388 19.494ZM20.6268 18.6648C20.8056 18.0412 21.0808 17.4576 21.4412 16.9352C21.266 17.5524 20.9932 18.1348 20.6268 18.6648ZM18.8572 16.8116C19.1696 17.372 19.388 17.9764 19.504 18.6096C19.1896 18.0424 18.9716 17.4356 18.8572 16.8116ZM18.672 19.3664C18.048 19.1872 17.464 18.912 16.9412 18.5512C17.5592 18.7268 18.142 19 18.672 19.3664ZM17.7332 19.8832C16.8508 20.1512 16.0312 20.6012 15.3148 21.2168C13.9868 21.1244 12.6844 20.5968 11.6552 19.6256C11.6456 19.6164 11.6368 19.6064 11.6272 19.5972C12.7108 18.738 14.0464 18.2832 15.4436 18.3196C16.086 18.9884 16.8648 19.5224 17.7332 19.8832ZM18.6264 20.484C18.0548 20.802 17.4424 21.0224 16.8128 21.1372C17.378 20.8216 17.9876 20.5996 18.6264 20.484ZM15.5964 22.0292C15.6424 22.03 15.688 22.0356 15.7336 22.0356C16.6144 22.0356 17.4932 21.8596 18.3188 21.5188C17.8844 22.3324 17.6232 23.2292 17.5524 24.1712C16.548 25.0448 15.2544 25.5928 13.84 25.6336C13.8264 25.634 13.8128 25.6332 13.7992 25.6336C13.9576 24.2616 14.5788 23.0008 15.5952 22.0304C15.5952 22.03 15.596 22.0296 15.5964 22.0292ZM19.3728 21.322C19.194 21.9448 18.9192 22.528 18.5588 23.05C18.7344 22.4332 19.0072 21.8516 19.3728 21.322ZM18.326 24.5492C18.9948 23.9068 19.5288 23.128 19.89 22.2596C20.158 23.1424 20.6076 23.9616 21.2236 24.678C21.1312 26.0064 20.6036 27.3084 19.6324 28.3376C19.6232 28.3476 19.6128 28.3564 19.6036 28.366C18.7456 27.284 18.294 25.9536 18.326 24.5492ZM21.674 15.4368C21.0052 16.0792 20.4712 16.858 20.11 17.7264C19.842 16.8436 19.3924 16.0244 18.7764 15.3084C18.8688 13.9804 19.3964 12.678 20.3676 11.6488C20.3768 11.6388 20.3876 11.6308 20.3968 11.6208C21.2544 12.7024 21.706 14.0328 21.674 15.4368ZM11.1064 20.2076C12.0996 21.1444 13.3168 21.7184 14.5852 21.9348C13.6884 22.9732 13.14 24.24 12.9956 25.602C11.6152 25.4508 10.3416 24.8124 9.38558 23.8176C9.48718 22.4532 10.0572 21.1452 11.0336 20.134C11.0584 20.158 11.0812 20.1836 11.1064 20.2076ZM13.6728 29.9756C12.9348 29.7656 12.1992 29.662 11.4992 29.662C10.8012 29.662 10.1396 29.7648 9.54798 29.968C9.96318 28.6264 9.91798 27.022 9.59598 25.8952C9.50398 25.5736 9.44318 25.248 9.40678 24.922C10.4124 25.7416 11.6412 26.2584 12.9576 26.396C12.9708 27.7308 13.3792 29.0064 14.1 30.0804C13.9572 30.0508 13.8144 30.0164 13.6728 29.9756ZM22.5848 31.526C21.2456 32.2708 20.2124 33.3124 19.6624 34.4364C19.0076 33.1944 17.8408 32.0916 16.8168 31.5232C16.5236 31.3604 16.2504 31.1728 15.9936 30.9676C17.2852 30.8364 18.5216 30.3364 19.55 29.502C20.5028 30.4356 21.6932 31.0476 22.9612 31.2976C22.8388 31.3776 22.714 31.4544 22.5848 31.526ZM29.9828 26.3208C29.5624 27.7944 29.5684 29.2612 29.9744 30.4452C28.6328 30.0304 27.0288 30.0752 25.902 30.3972C25.58 30.4896 25.254 30.5504 24.9272 30.5868C25.7476 29.5808 26.2676 28.3524 26.4052 27.0352C27.7388 27.0216 29.0136 26.6132 30.0868 25.8932C30.0576 26.036 30.0232 26.1788 29.9828 26.3208ZM31.5332 17.4084C32.278 18.7472 33.32 19.7804 34.4436 20.3304C33.2016 20.9852 32.0988 22.152 31.5304 23.176C31.3676 23.4688 31.18 23.7424 30.9752 23.9988C30.844 22.7076 30.3432 21.4708 29.5088 20.4424C30.442 19.49 31.0544 18.3 31.3044 17.032C31.3848 17.1548 31.4616 17.2796 31.5332 17.4084ZM26.3272 10.01C27.8016 10.4308 29.2684 10.424 30.452 10.0184C30.0368 11.36 30.082 12.9644 30.404 14.0912C30.4964 14.414 30.5572 14.7408 30.5936 15.068C29.588 14.25 28.3604 13.732 27.0424 13.5912C27.0296 12.256 26.6208 10.98 25.9 9.9056C26.0428 9.9352 26.1852 9.9696 26.3272 10.01ZM17.4152 8.4596C18.7544 7.7148 19.7876 6.6732 20.3376 5.5492C20.9928 6.7912 22.1592 7.894 23.1832 8.4624C23.4764 8.6252 23.75 8.8128 24.0068 9.0184C22.7156 9.1496 21.4788 9.65 20.45 10.4844C19.4972 9.5508 18.3068 8.9384 17.0392 8.6884C17.1612 8.608 17.2864 8.5316 17.4152 8.4596ZM10.0172 13.6656C10.4376 12.192 10.4312 10.7248 10.0252 9.5408C11.3676 9.9568 12.9716 9.9104 14.098 9.5888C14.42 9.4964 14.746 9.4356 15.0728 9.3992C14.2524 10.4052 13.7324 11.634 13.5948 12.9512C12.2612 12.9648 10.9864 13.3732 9.91318 14.0928C9.94238 13.95 9.97678 13.8076 10.0172 13.6656ZM8.46958 16.8096C8.63238 16.5168 8.81998 16.2436 9.02478 15.9868C9.15598 17.278 9.65718 18.5148 10.4912 19.5432C9.55758 20.4956 8.94518 21.686 8.69518 22.954C8.61518 22.832 8.53838 22.7068 8.46678 22.5776C7.72198 21.2384 6.68038 20.2052 5.55638 19.6552C6.79838 19.0008 7.90118 17.834 8.46958 16.8096Z" fill="#414A52"/>
</svg>
