<svg width="336" height="254" viewBox="0 0 336 254" fill="none" xmlns="http://www.w3.org/2000/svg">
<g clip-path="url(#clip0)">
<path d="M157.897 213.227C157.897 213.227 162.173 206.209 167.664 210.359C173.154 214.508 183.322 221.51 183.322 221.51C183.322 221.51 185.404 225.988 180.014 224.306C174.624 222.624 157.028 219.917 157.028 219.917L157.897 213.227Z" fill="#FEB8B8"/>
<path d="M38.3866 168.656C39.7494 157.694 46.5407 146.893 56.9915 143.326C52.87 154.609 52.8709 166.986 56.9941 178.268C58.6 182.614 60.8384 187.279 59.3279 191.659C58.388 194.384 56.0888 196.469 53.5187 197.772C50.9485 199.076 48.0961 199.697 45.2794 200.306L44.725 200.765C40.2536 190.665 37.0238 179.617 38.3866 168.656Z" fill="#F0F0F0"/>
<path d="M57.0953 143.533C51.0092 150.355 47.2265 158.921 46.2845 168.015C46.047 169.97 46.1188 171.949 46.4975 173.881C46.9272 175.751 47.8496 177.472 49.1689 178.864C50.3729 180.188 51.7577 181.402 52.6192 182.995C53.0481 183.817 53.2984 184.72 53.3538 185.646C53.4092 186.571 53.2683 187.498 52.9405 188.366C52.1799 190.548 50.6808 192.327 49.1543 194.015C47.4595 195.89 45.6694 197.81 44.9489 200.296C44.8616 200.597 44.3996 200.444 44.4868 200.143C45.7402 195.819 49.9365 193.363 51.9377 189.468C52.8715 187.65 53.2635 185.541 52.3881 183.622C51.6226 181.945 50.1956 180.691 48.9649 179.362C47.658 178.022 46.6989 176.383 46.1714 174.587C45.6957 172.68 45.5477 170.707 45.7338 168.751C46.0825 164.341 47.1223 160.013 48.8151 155.925C50.7211 151.25 53.4127 146.935 56.7732 143.168C56.9813 142.935 57.302 143.301 57.0953 143.533Z" fill="white"/>
<path d="M46.4155 165.069C44.9116 164.704 43.5864 163.816 42.6767 162.563C41.767 161.311 41.3319 159.776 41.4491 158.232C41.4739 157.92 41.9602 157.944 41.9353 158.257C41.8235 159.694 42.2289 161.124 43.0785 162.288C43.928 163.453 45.1657 164.275 46.5681 164.607C46.8728 164.679 46.7184 165.141 46.4155 165.069Z" fill="white"/>
<path d="M48.47 178.274C51.1863 176.652 53.1914 174.065 54.0857 171.029C54.174 170.728 54.6361 170.881 54.5478 171.182C53.6113 174.339 51.5192 177.027 48.6889 178.709C48.4191 178.869 48.2016 178.433 48.47 178.274Z" fill="white"/>
<path d="M51.1727 151.711C51.7252 151.974 52.3341 152.095 52.945 152.064C53.5559 152.033 54.1495 151.851 54.6725 151.534C54.9402 151.37 55.1574 151.806 54.8914 151.968C54.3119 152.316 53.6561 152.517 52.9813 152.552C52.3064 152.588 51.6331 152.458 51.0201 152.174C50.9601 152.152 50.9107 152.108 50.8819 152.05C50.8532 151.993 50.8472 151.927 50.8653 151.866C50.8858 151.805 50.9296 151.754 50.9872 151.725C51.0447 151.696 51.1114 151.691 51.1727 151.711Z" fill="white"/>
<path d="M88.8472 162.905C88.6829 163.012 88.5187 163.119 88.3542 163.23C86.1533 164.677 84.0735 166.302 82.1355 168.086C81.9835 168.222 81.8314 168.362 81.6836 168.501C77.0603 172.851 73.2845 178.021 70.548 183.75C69.4612 186.03 68.5494 188.39 67.8205 190.809C66.8141 194.149 65.9886 197.851 63.9964 200.584C63.7917 200.871 63.5695 201.146 63.3309 201.406H45.3273C45.2864 201.385 45.2453 201.369 45.2042 201.348L44.4854 201.381C44.5142 201.254 44.5469 201.122 44.5758 200.995C44.5922 200.921 44.6127 200.847 44.6292 200.773C44.6414 200.724 44.6538 200.674 44.662 200.629C44.6661 200.613 44.6703 200.596 44.6743 200.584C44.6825 200.539 44.6949 200.498 44.7032 200.457C44.8839 199.721 45.0701 198.986 45.2617 198.25C45.2617 198.246 45.2617 198.246 45.2658 198.242C46.7405 192.641 48.6956 187.115 51.4271 182.061C51.5094 181.909 51.5914 181.753 51.6818 181.601C52.9257 179.329 54.3531 177.164 55.9497 175.125C56.8275 174.011 57.7611 172.943 58.747 171.924C61.2992 169.296 64.2489 167.086 67.4878 165.374C73.945 161.964 81.4207 160.657 88.3215 162.741C88.498 162.794 88.6707 162.847 88.8472 162.905Z" fill="#F0F0F0"/>
<path d="M88.8068 163.134C79.8417 164.915 71.6656 169.476 65.4397 176.17C64.0739 177.588 62.9399 179.212 62.0795 180.982C61.2971 182.734 60.9979 184.663 61.213 186.57C61.3779 188.352 61.7529 190.155 61.4819 191.946C61.3296 192.861 60.9858 193.733 60.4729 194.505C59.96 195.277 59.2898 195.933 58.506 196.428C56.5852 197.712 54.3177 198.229 52.0826 198.658C49.6011 199.134 47.0159 199.59 44.9448 201.14C44.6938 201.328 44.4171 200.927 44.6676 200.74C48.2711 198.042 53.0999 198.608 57.042 196.704C58.8814 195.815 60.4642 194.366 60.9199 192.307C61.3184 190.507 60.9333 188.647 60.7508 186.844C60.5136 184.987 60.7346 183.101 61.3945 181.349C62.162 179.54 63.2315 177.876 64.5574 176.426C67.4902 173.115 70.9254 170.285 74.7369 168.041C79.0727 165.456 83.8187 163.632 88.7694 162.648C89.0758 162.587 89.1112 163.073 88.8068 163.134H88.8068Z" fill="white"/>
<path d="M67.3176 173.897C66.3366 172.699 65.8131 171.192 65.8405 169.644C65.8679 168.097 66.4444 166.609 67.4671 165.447C67.6748 165.213 68.0487 165.525 67.8407 165.759C66.8864 166.839 66.3495 168.225 66.3269 169.667C66.3044 171.108 66.7976 172.51 67.7177 173.62C67.9173 173.861 67.5161 174.137 67.3176 173.897H67.3176Z" fill="white"/>
<path d="M61.0105 185.677C64.1557 186.018 67.3137 185.16 69.8547 183.275C70.1063 183.088 70.3831 183.488 70.1318 183.675C67.4839 185.632 64.1958 186.518 60.9236 186.156C60.6117 186.122 60.7003 185.643 61.0105 185.677Z" fill="white"/>
<path d="M79.1556 166.096C79.4387 166.639 79.852 167.102 80.3584 167.446C80.8648 167.789 81.4485 168.001 82.057 168.062C82.3692 168.093 82.2802 168.572 81.9701 168.541C81.2981 168.47 80.6537 168.235 80.0934 167.857C79.533 167.479 79.0737 166.97 78.7556 166.374C78.7209 166.32 78.7079 166.255 78.7193 166.192C78.7307 166.129 78.7657 166.073 78.817 166.035C78.8702 165.998 78.9356 165.985 78.999 165.996C79.0624 166.008 79.1187 166.044 79.1556 166.096Z" fill="white"/>
<path d="M183.586 241.308C184.114 237.059 186.746 232.873 190.797 231.491C189.199 235.864 189.2 240.661 190.798 245.033C191.42 246.717 192.288 248.525 191.702 250.223C191.283 251.272 190.477 252.12 189.451 252.592C188.433 253.054 187.36 253.384 186.258 253.574L186.043 253.752C184.31 249.837 183.058 245.556 183.586 241.308Z" fill="#F0F0F0"/>
<path d="M190.837 231.571C188.478 234.215 187.012 237.535 186.647 241.06C186.555 241.817 186.583 242.584 186.73 243.333C186.896 244.057 187.254 244.724 187.765 245.264C188.274 245.742 188.723 246.279 189.102 246.865C189.269 247.183 189.366 247.534 189.387 247.892C189.408 248.251 189.354 248.61 189.227 248.946C188.889 249.767 188.39 250.512 187.759 251.136C187.103 251.862 186.409 252.607 186.13 253.57C186.096 253.687 185.917 253.627 185.951 253.511C186.436 251.835 188.063 250.883 188.838 249.373C189.038 249.034 189.158 248.654 189.188 248.261C189.218 247.868 189.158 247.474 189.013 247.108C188.661 246.491 188.213 245.933 187.686 245.457C187.18 244.938 186.808 244.302 186.603 243.606C186.419 242.867 186.362 242.103 186.434 241.345C186.569 239.635 186.972 237.958 187.628 236.374C188.367 234.562 189.41 232.89 190.712 231.43C190.793 231.339 190.917 231.482 190.837 231.571H190.837Z" fill="white"/>
<path d="M186.698 239.918C186.115 239.776 185.602 239.432 185.249 238.947C184.896 238.461 184.728 237.866 184.773 237.268C184.783 237.147 184.971 237.156 184.962 237.277C184.918 237.834 185.075 238.389 185.405 238.84C185.734 239.291 186.214 239.61 186.757 239.739C186.875 239.767 186.815 239.946 186.698 239.918H186.698Z" fill="white"/>
<path d="M187.494 245.035C188.547 244.406 189.324 243.404 189.671 242.227C189.705 242.111 189.884 242.17 189.85 242.287C189.487 243.51 188.676 244.552 187.579 245.204C187.474 245.266 187.39 245.097 187.494 245.035Z" fill="white"/>
<path d="M188.542 234.741C188.756 234.843 188.992 234.89 189.228 234.878C189.465 234.866 189.695 234.795 189.898 234.672C190.002 234.609 190.086 234.778 189.983 234.84C189.758 234.975 189.504 235.053 189.243 235.067C188.981 235.081 188.72 235.03 188.482 234.92C188.459 234.911 188.44 234.894 188.429 234.872C188.418 234.85 188.415 234.825 188.422 234.801C188.43 234.777 188.447 234.758 188.47 234.746C188.492 234.735 188.518 234.733 188.542 234.741L188.542 234.741Z" fill="white"/>
<path d="M203.142 239.079C203.079 239.12 203.015 239.162 202.951 239.205C202.098 239.766 201.292 240.395 200.541 241.087C200.482 241.14 200.424 241.194 200.366 241.248C198.574 242.933 197.111 244.937 196.051 247.157C195.629 248.041 195.276 248.956 194.994 249.893C194.604 251.188 194.284 252.622 193.512 253.681C193.432 253.793 193.346 253.899 193.254 254H186.276C186.26 253.992 186.244 253.986 186.229 253.978L185.95 253.99C185.961 253.941 185.974 253.89 185.985 253.841C185.991 253.812 185.999 253.783 186.006 253.755C186.01 253.736 186.015 253.717 186.018 253.699C186.02 253.693 186.022 253.686 186.023 253.681C186.026 253.664 186.031 253.648 186.034 253.632C186.104 253.347 186.177 253.062 186.251 252.777L186.252 252.774C186.798 250.596 187.599 248.491 188.64 246.503C188.672 246.444 188.704 246.383 188.739 246.324C189.221 245.444 189.774 244.605 190.393 243.815C190.733 243.383 191.095 242.969 191.477 242.574C192.466 241.556 193.609 240.699 194.865 240.036C197.367 238.714 200.264 238.208 202.939 239.015C203.007 239.036 203.074 239.057 203.142 239.079Z" fill="#F0F0F0"/>
<path d="M203.127 239.168C199.652 239.858 196.484 241.626 194.071 244.22C193.542 244.769 193.102 245.399 192.769 246.085C192.465 246.764 192.349 247.511 192.433 248.25C192.552 248.938 192.587 249.638 192.537 250.334C192.478 250.688 192.345 251.026 192.146 251.326C191.947 251.625 191.687 251.879 191.384 252.071C190.62 252.523 189.774 252.817 188.894 252.935C187.933 253.12 186.931 253.296 186.128 253.897C186.031 253.97 185.923 253.815 186.021 253.742C187.417 252.696 189.289 252.916 190.816 252.178C191.18 252.027 191.505 251.795 191.765 251.5C192.026 251.205 192.215 250.854 192.319 250.474C192.41 249.769 192.388 249.055 192.254 248.357C192.162 247.637 192.247 246.906 192.503 246.227C192.801 245.526 193.215 244.881 193.729 244.319C194.866 243.036 196.197 241.939 197.674 241.07C199.354 240.068 201.194 239.361 203.112 238.979C203.231 238.956 203.245 239.144 203.127 239.168H203.127Z" fill="white"/>
<path d="M194.799 243.339C194.419 242.875 194.216 242.291 194.226 241.691C194.237 241.091 194.46 240.514 194.857 240.064C194.937 239.973 195.082 240.094 195.001 240.185C194.632 240.604 194.423 241.141 194.415 241.699C194.406 242.258 194.597 242.801 194.954 243.231C195.031 243.325 194.876 243.432 194.799 243.339Z" fill="white"/>
<path d="M192.354 247.904C193.573 248.036 194.797 247.704 195.782 246.973C195.879 246.901 195.987 247.056 195.889 247.129C194.863 247.887 193.589 248.23 192.321 248.09C192.2 248.077 192.234 247.891 192.354 247.904H192.354Z" fill="white"/>
<path d="M199.387 240.316C199.496 240.526 199.656 240.706 199.853 240.839C200.049 240.972 200.275 241.054 200.511 241.078C200.632 241.09 200.597 241.275 200.477 241.263C200.217 241.236 199.967 241.145 199.75 240.998C199.533 240.852 199.355 240.654 199.232 240.423C199.218 240.402 199.213 240.377 199.217 240.353C199.222 240.328 199.235 240.307 199.255 240.292C199.276 240.278 199.301 240.272 199.326 240.277C199.35 240.281 199.372 240.295 199.387 240.316Z" fill="white"/>
<path d="M303.463 151.067C301.369 134.218 290.93 117.617 274.866 112.134C281.201 129.476 281.2 148.501 274.863 165.842C272.394 172.521 268.954 179.693 271.275 186.424C272.72 190.613 276.254 193.817 280.204 195.821C284.155 197.825 288.539 198.78 292.869 199.716L293.721 200.421C300.594 184.896 305.558 167.916 303.463 151.067Z" fill="#F0F0F0"/>
<path d="M274.707 112.453C284.062 122.938 289.876 136.105 291.324 150.083C291.616 153.08 291.651 156.145 290.996 159.099C290.336 161.973 288.918 164.618 286.89 166.759C285.04 168.793 282.911 170.659 281.587 173.107C280.191 175.688 280.138 178.621 281.093 181.362C282.262 184.717 284.566 187.451 286.913 190.046C289.518 192.928 292.269 195.879 293.377 199.7C293.511 200.163 294.221 199.927 294.087 199.465C292.16 192.818 285.71 189.043 282.634 183.057C281.199 180.263 280.597 177.02 281.942 174.071C283.119 171.493 285.312 169.567 287.204 167.523C289.19 165.378 290.713 163.024 291.498 160.183C292.3 157.278 292.384 154.205 292.17 151.214C291.634 144.435 290.036 137.783 287.434 131.5C284.504 124.314 280.367 117.682 275.202 111.891C274.882 111.533 274.389 112.097 274.707 112.453L274.707 112.453Z" fill="white"/>
<path d="M291.122 145.555C293.434 144.993 295.471 143.628 296.869 141.703C298.267 139.778 298.936 137.419 298.756 135.046C298.718 134.566 297.97 134.603 298.009 135.084C298.18 137.293 297.557 139.491 296.252 141.28C294.946 143.07 293.043 144.334 290.888 144.844C290.42 144.956 290.657 145.666 291.122 145.555H291.122Z" fill="white"/>
<path d="M287.964 165.851C283.789 163.357 280.707 159.381 279.333 154.715C279.197 154.253 278.487 154.488 278.623 154.95C280.062 159.803 283.278 163.934 287.628 166.519C288.043 166.766 288.377 166.096 287.964 165.851Z" fill="white"/>
<path d="M283.81 125.023C282.961 125.427 282.025 125.613 281.086 125.565C280.147 125.518 279.235 125.237 278.431 124.75C278.019 124.499 277.686 125.169 278.095 125.418C278.985 125.953 279.993 126.261 281.031 126.316C282.068 126.371 283.103 126.171 284.045 125.734C284.137 125.7 284.213 125.632 284.257 125.544C284.301 125.457 284.311 125.355 284.283 125.261C284.251 125.167 284.184 125.089 284.096 125.045C284.007 125 283.905 124.992 283.81 125.023Z" fill="white"/>
<path d="M225.903 142.228C226.155 142.392 226.408 142.557 226.66 142.727C230.043 144.953 233.24 147.449 236.219 150.192C236.453 150.401 236.686 150.615 236.914 150.83C244.02 157.516 249.823 165.463 254.029 174.267C255.7 177.773 257.101 181.4 258.222 185.118C259.769 190.252 261.038 195.943 264.1 200.143C264.414 200.584 264.756 201.006 265.123 201.406H292.795C292.858 201.374 292.921 201.349 292.984 201.317L294.089 201.368C294.045 201.172 293.994 200.97 293.95 200.774C293.925 200.66 293.893 200.547 293.868 200.433C293.849 200.357 293.83 200.281 293.817 200.212C293.811 200.187 293.805 200.161 293.799 200.143C293.786 200.073 293.767 200.01 293.754 199.947C293.476 198.816 293.19 197.686 292.896 196.555C292.896 196.549 292.896 196.549 292.889 196.543C290.623 187.934 287.618 179.44 283.419 171.672C283.293 171.438 283.167 171.198 283.028 170.964C281.116 167.473 278.922 164.144 276.468 161.011C275.119 159.299 273.683 157.657 272.168 156.091C268.245 152.051 263.711 148.654 258.733 146.024C248.808 140.782 237.318 138.774 226.711 141.976C226.439 142.058 226.174 142.14 225.903 142.228Z" fill="#F0F0F0"/>
<path d="M225.965 142.58C239.745 145.317 252.312 152.329 261.881 162.618C263.918 164.835 265.791 167.261 267.046 170.014C268.249 172.706 268.708 175.672 268.378 178.602C268.124 181.341 267.548 184.113 267.965 186.865C268.404 189.767 270.126 192.141 272.539 193.754C275.491 195.728 278.976 196.523 282.412 197.182C286.226 197.914 290.199 198.614 293.383 200.997C293.769 201.286 294.194 200.671 293.809 200.382C288.27 196.236 280.848 197.106 274.789 194.179C271.962 192.813 269.529 190.586 268.828 187.421C268.216 184.654 268.808 181.795 269.088 179.024C269.383 176.115 269.182 173.318 268.099 170.578C266.991 167.774 265.209 165.27 263.237 163.011C258.729 157.921 253.45 153.572 247.591 150.123C240.927 146.15 233.632 143.346 226.022 141.833C225.551 141.74 225.497 142.487 225.965 142.58V142.58Z" fill="white"/>
<path d="M258.995 159.123C260.503 157.283 261.307 154.966 261.265 152.587C261.223 150.208 260.337 147.921 258.765 146.136C258.446 145.775 257.871 146.255 258.191 146.615C259.658 148.276 260.483 150.406 260.518 152.621C260.552 154.837 259.794 156.992 258.38 158.697C258.073 159.068 258.69 159.492 258.995 159.123L258.995 159.123Z" fill="white"/>
<path d="M268.689 177.231C263.855 177.754 259.001 176.436 255.095 173.538C254.709 173.251 254.283 173.866 254.669 174.153C258.739 177.161 263.793 178.523 268.823 177.967C269.302 177.914 269.166 177.178 268.689 177.231Z" fill="white"/>
<path d="M240.799 147.134C240.364 147.967 239.729 148.68 238.951 149.207C238.172 149.735 237.275 150.061 236.34 150.155C235.86 150.203 235.997 150.939 236.473 150.892C237.506 150.782 238.497 150.421 239.358 149.84C240.219 149.259 240.925 148.477 241.414 147.56C241.468 147.477 241.487 147.378 241.47 147.281C241.452 147.184 241.399 147.098 241.32 147.039C241.238 146.983 241.137 146.962 241.04 146.979C240.943 146.997 240.856 147.053 240.799 147.134V147.134Z" fill="white"/>
<path d="M335.723 201.817H0.410758C0.301818 201.817 0.19734 201.773 0.120308 201.696C0.0432758 201.619 0 201.515 0 201.406C0 201.297 0.0432758 201.192 0.120308 201.115C0.19734 201.038 0.301818 200.995 0.410758 200.995H335.589C335.698 200.995 335.803 201.038 335.88 201.115C335.957 201.192 336 201.297 336 201.406C336 201.633 335.95 201.817 335.723 201.817Z" fill="#CACACA"/>
<path d="M117.611 237.975H43.5403C43.4314 237.975 43.3269 237.932 43.2499 237.855C43.1729 237.778 43.1296 237.673 43.1296 237.564C43.1296 237.455 43.1729 237.351 43.2499 237.274C43.3269 237.197 43.4314 237.153 43.5403 237.153H117.477C117.586 237.153 117.69 237.197 117.767 237.274C117.844 237.351 117.888 237.455 117.888 237.564C117.888 237.791 117.838 237.975 117.611 237.975Z" fill="#CACACA"/>
<path d="M233.856 254H159.785C159.676 254 159.571 253.957 159.494 253.88C159.417 253.803 159.374 253.698 159.374 253.589C159.374 253.48 159.417 253.376 159.494 253.299C159.571 253.221 159.676 253.178 159.785 253.178H233.721C233.83 253.178 233.935 253.221 234.012 253.299C234.089 253.376 234.132 253.48 234.132 253.589C234.132 253.816 234.082 254 233.856 254Z" fill="#CACACA"/>
<path d="M303.684 237.564H229.614C229.505 237.564 229.4 237.521 229.323 237.444C229.246 237.367 229.203 237.262 229.203 237.153C229.203 237.044 229.246 236.94 229.323 236.863C229.4 236.786 229.505 236.742 229.614 236.742H303.55C303.659 236.742 303.764 236.786 303.841 236.863C303.918 236.94 303.961 237.044 303.961 237.153C303.961 237.38 303.911 237.564 303.684 237.564Z" fill="#CACACA"/>
<path d="M136.889 221.95C132.287 221.95 128.075 221.509 124.728 220.467C120.75 219.228 118.252 217.224 117.303 214.506C116.857 213.353 116.724 212.102 116.917 210.88C117.11 209.658 117.623 208.509 118.403 207.549C124.288 199.878 144.71 197.714 147.45 197.459L153.01 186.929C153.365 184.416 151.682 182.514 154.59 182.467L188.985 181.999C191.84 181.939 191.03 183.708 191.519 186.158L196.759 195.516L174.206 205.037L177.616 213.349L177.393 213.478C170.792 217.308 151.81 221.95 136.889 221.95Z" fill="#2F2E41"/>
<path d="M193.637 195.915C193.637 195.915 225.134 192.309 223.079 206.732C221.025 221.155 197.06 231.371 160.77 206.732L164.878 199.521C164.878 199.521 178.402 198.848 186.618 195.242L193.637 195.915Z" fill="#2F2E41"/>
<path d="M149.045 130.575C149.045 130.575 143.059 129.486 141.426 138.741C139.793 147.996 137.178 169.918 137.178 169.918L129.058 198.078C128.1 198.587 127.307 199.357 126.77 200.3C126.234 201.243 125.977 202.319 126.029 203.402C126.082 204.486 126.441 205.532 127.065 206.419C127.69 207.305 128.553 207.996 129.556 208.41C130.558 208.824 131.657 208.945 132.725 208.757C133.793 208.569 134.786 208.082 135.587 207.351C136.388 206.62 136.965 205.676 137.25 204.63C137.535 203.583 137.517 202.477 137.197 201.441L148.062 171.553L150.133 145.82V132.337C150.133 131.971 150.032 131.612 149.839 131.301C149.647 130.99 149.372 130.739 149.045 130.575Z" fill="#FEB8B8"/>
<path d="M191.182 130.575C191.182 130.575 197.169 129.486 198.801 138.741C200.434 147.996 203.049 169.918 203.049 169.918L211.17 198.078C212.127 198.587 212.921 199.357 213.457 200.3C213.993 201.243 214.25 202.319 214.198 203.402C214.146 204.486 213.786 205.532 213.162 206.419C212.538 207.305 211.674 207.996 210.672 208.41C209.669 208.824 208.57 208.945 207.502 208.757C206.434 208.569 205.442 208.082 204.64 207.351C203.839 206.62 203.262 205.676 202.977 204.63C202.692 203.583 202.71 202.477 203.03 201.441L192.165 171.553L190.094 145.82V132.337C190.094 131.971 190.196 131.612 190.388 131.301C190.58 130.99 190.855 130.739 191.182 130.575Z" fill="#FEB8B8"/>
<path d="M190.726 122.925L179.403 118.689L157.455 118.405L148.007 122.925L150.661 138.18C150.661 138.18 145.303 147.254 151.202 156.33L152.525 188.668C152.525 188.668 173.686 200.943 191.547 186.203L187.51 156.136C187.51 156.136 194.263 142.186 189.029 137.004L190.726 122.925Z" fill="#6C63FF"/>
<path d="M186.114 127.666L190.726 122.925C190.726 122.925 200.791 128.221 200.584 145.935L187.887 142.021L186.114 127.666Z" fill="#6C63FF"/>
<path d="M153.131 127.666L148.231 122.764C148.231 122.764 139.585 129.454 139.792 147.168L151.358 142.021L153.131 127.666Z" fill="#6C63FF"/>
<path d="M185.073 209.723C185.073 209.723 181.546 202.3 175.655 205.858C169.765 209.417 158.927 215.328 158.927 215.328C158.927 215.328 156.392 219.566 161.927 218.452C167.463 217.337 185.244 216.467 185.244 216.467L185.073 209.723Z" fill="#FEB8B8"/>
<path d="M175.274 77.0215C175.324 76.9736 175.376 76.9306 175.425 76.8815C178.577 73.7286 179.216 69.2557 176.852 66.891C174.618 64.6562 170.503 65.1072 167.397 67.8243C164.734 65.2881 161.163 64.5811 158.852 66.3319C156.187 68.3507 156.208 72.869 158.899 76.4237C159.083 76.6671 159.276 76.8973 159.475 77.1187C155.894 78.4299 152.802 80.81 150.617 83.9367C148.433 87.0635 147.262 90.7861 147.262 94.6007V112.318C147.262 112.838 147.364 113.353 147.563 113.832C147.761 114.312 148.053 114.749 148.42 115.116C148.787 115.483 149.223 115.775 149.703 115.974C150.183 116.172 150.697 116.275 151.217 116.275H183.952C184.966 116.275 185.938 115.872 186.655 115.155C187.372 114.438 187.775 113.465 187.775 112.451V94.6007C187.774 90.7348 186.57 86.9649 184.33 83.8147C182.09 80.6644 178.925 78.2901 175.274 77.0215Z" fill="#2F2E41"/>
<path d="M179.019 109.956C185.086 103.887 185.086 94.0486 179.019 87.9802C172.953 81.9118 163.117 81.9118 157.051 87.9802C150.985 94.0486 150.985 103.887 157.051 109.956C163.117 116.024 172.953 116.024 179.019 109.956Z" fill="#FFB6B6"/>
<path d="M151.713 89.194C155.262 91.6414 159.476 92.9439 163.787 92.9266C162.249 93.9933 160.498 94.7138 158.655 95.0385C164.387 96.2685 170.311 96.3018 176.057 95.1363C177.334 94.9314 178.566 94.5081 179.7 93.8847C180.264 93.5692 180.756 93.1383 181.144 92.62C181.531 92.1017 181.805 91.5077 181.948 90.8765C182.33 88.6948 180.63 86.7125 178.864 85.3766C176.16 83.3625 173.042 81.9748 169.736 81.314C166.43 80.6531 163.019 80.7356 159.748 81.5555C157.613 82.1077 155.474 83.0406 154.087 84.756C152.7 86.4714 152.289 89.1161 153.61 90.8825L151.713 89.194Z" fill="#2F2E41"/>
<path d="M68.6252 58.1852L69.1147 57.525L82.1559 67.2015C81.4472 65.0408 78.9386 58.1912 74.8264 55.4581C69.9136 52.1931 66.4573 53.2087 64.5741 56.044C62.691 58.8792 63.0943 62.4602 68.007 65.7254C72.1714 68.4931 79.5899 68.1083 81.7543 67.9268L68.6252 58.1852Z" fill="#F2F2F2"/>
<path d="M264.843 5.20687L265.449 5.76259L254.471 17.7309C256.693 17.2505 263.765 15.4672 266.91 11.6601C270.667 7.11202 270.017 3.56759 267.393 1.3992C264.77 -0.769194 261.168 -0.740477 257.411 3.80765C254.226 7.6629 253.837 15.0836 253.792 17.2558L264.843 5.20687Z" fill="#F2F2F2"/>
<path d="M87.8065 132.995L88.412 133.55L77.4347 145.519C79.6567 145.038 86.7279 143.255 89.873 139.448C93.6302 134.9 92.9799 131.355 90.3568 129.187C87.7337 127.019 84.1314 127.047 80.374 131.595C77.1891 135.451 76.8001 142.871 76.7554 145.044L87.8065 132.995Z" fill="#F2F2F2"/>
<path d="M180.628 18.9217L181.34 19.3333L173.208 33.392C175.273 32.4426 181.792 29.1726 184.04 24.7756C186.726 19.5227 185.325 16.2027 182.296 14.6526C179.266 13.1025 175.755 13.9094 173.069 19.1624C170.792 23.6151 172.016 30.9445 172.442 33.0751L180.628 18.9217Z" fill="#F2F2F2"/>
<path d="M256.619 106.853L257.33 107.264L249.198 121.323C251.263 120.374 257.782 117.104 260.03 112.707C262.716 107.454 261.315 104.134 258.286 102.584C255.256 101.034 251.745 101.841 249.059 107.094C246.783 111.546 248.006 118.876 248.432 121.006L256.619 106.853Z" fill="#F2F2F2"/>
</g>
<defs>
<clipPath id="clip0">
<rect width="336" height="254" fill="white"/>
</clipPath>
</defs>
</svg>
